<svg xmlns="http://www.w3.org/2000/svg" xmlns:xlink="http://www.w3.org/1999/xlink" width="40" height="40" viewBox="0 0 40 40">
  <defs>
    <clipPath id="clip-path">
      <rect id="Rectangle_88" data-name="Rectangle 88" width="19.13" height="22" fill="#fff"/>
    </clipPath>
  </defs>
  <g id="Icon_Apple" transform="translate(-46 -221)">
    <circle id="BG" cx="20" cy="20" r="20" transform="translate(46 221)"/>
    <g id="Apple" transform="translate(56 230)">
      <g id="Group_229" data-name="Group 229">
        <g id="Group_228" data-name="Group 228" clip-path="url(#clip-path)">
          <path id="Path_49" data-name="Path 49" d="M18.834,16.165A15.877,15.877,0,0,1,17.4,18.843c-.909,1.435-2.248,3.157-3.874,3.2-1.435,0-1.817-.957-3.778-.909-1.961,0-2.343.957-3.826.909-1.626,0-2.87-1.626-3.778-3.013C-.44,15.065-.727,10.426.9,7.987A5.7,5.7,0,0,1,5.538,5.213c1.722,0,2.822.957,4.209.957s2.2-.957,4.209-.957a5.506,5.506,0,0,1,4.209,2.248,4.812,4.812,0,0,0,.67,8.7ZM12.473,3.587A4.674,4.674,0,0,0,13.525,0a5.112,5.112,0,0,0-3.348,1.817,4.539,4.539,0,0,0-1.1,3.491,4.474,4.474,0,0,0,3.4-1.722Z" transform="translate(0.057)" fill="#fff"/>
        </g>
      </g>
    </g>
  </g>
</svg>
