<svg width="40" height="40" viewBox="0 0 40 40" fill="none" xmlns="http://www.w3.org/2000/svg">
<g clip-path="url(#clip0_29_809)">
<path d="M36 0H4C1.79086 0 0 1.79086 0 4V36C0 38.2091 1.79086 40 4 40H36C38.2091 40 40 38.2091 40 36V4C40 1.79086 38.2091 0 36 0Z" fill="#00C569" fill-opacity="0.07"/>
<path d="M10 30V13.75C10 12.7554 10.3951 11.8016 11.0983 11.0983C11.8016 10.3951 12.7554 10 13.75 10H26.25C27.2446 10 28.1984 10.3951 28.9017 11.0983C29.6049 11.8016 30 12.7554 30 13.75V21.25C30 22.2446 29.6049 23.1984 28.9017 23.9017C28.1984 24.6049 27.2446 25 26.25 25H15L10 30Z" stroke="black" stroke-width="2" stroke-linecap="round" stroke-linejoin="round"/>
<path d="M16.8454 18.952L18.5094 15.128C18.536 15.0747 18.5787 15.0133 18.6374 14.944C18.7014 14.8693 18.7547 14.832 18.7974 14.832C18.888 14.832 18.944 14.848 18.9654 14.88L20.5654 18.84C20.6187 18.9573 20.6587 19.0613 20.6854 19.152C20.712 19.2373 20.744 19.3227 20.7814 19.408C20.8294 19.5147 20.896 19.592 20.9814 19.64C21.072 19.688 21.1574 19.7173 21.2374 19.728C21.3227 19.7387 21.376 19.744 21.3974 19.744C21.4187 19.7813 21.4294 19.8347 21.4294 19.904C21.4347 19.9733 21.4294 20.016 21.4134 20.032C21.2587 20.0213 21.088 20.008 20.9014 19.992C20.7147 19.976 20.536 19.968 20.3654 19.968C20.248 19.968 20.1147 19.9733 19.9654 19.984C19.816 19.9893 19.672 19.9973 19.5334 20.008C19.4 20.0187 19.2854 20.0267 19.1894 20.032C19.1787 20.016 19.1707 19.9867 19.1654 19.944C19.16 19.896 19.16 19.8507 19.1654 19.808C19.1707 19.7653 19.1787 19.744 19.1894 19.744C19.2587 19.744 19.3387 19.7333 19.4294 19.712C19.5254 19.6853 19.6 19.648 19.6534 19.6C19.696 19.5627 19.7174 19.52 19.7174 19.472C19.7174 19.456 19.7014 19.408 19.6694 19.328C19.6374 19.2427 19.5974 19.1413 19.5494 19.024C19.5067 18.9067 19.4614 18.792 19.4134 18.68C19.3707 18.5627 19.3334 18.4667 19.3014 18.392C19.2694 18.3173 19.2534 18.28 19.2534 18.28C19.2534 18.28 19.2454 18.2747 19.2294 18.264C19.2187 18.2533 19.208 18.248 19.1974 18.248C19.0854 18.2427 18.976 18.24 18.8694 18.24C18.768 18.24 18.6747 18.24 18.5894 18.24C18.5627 18.24 18.536 18.24 18.5094 18.24C18.488 18.24 18.4667 18.24 18.4454 18.24C18.2854 18.24 18.144 18.24 18.0214 18.24C17.904 18.24 17.776 18.2427 17.6374 18.248C17.616 18.248 17.5974 18.2613 17.5814 18.288C17.5814 18.288 17.5627 18.328 17.5254 18.408C17.4934 18.488 17.456 18.5787 17.4134 18.68C17.3707 18.7813 17.3334 18.8693 17.3014 18.944C17.264 19.04 17.224 19.1467 17.1814 19.264C17.144 19.3813 17.1254 19.4533 17.1254 19.48C17.1254 19.544 17.1707 19.5973 17.2614 19.64C17.352 19.6773 17.4454 19.704 17.5414 19.72C17.6427 19.736 17.704 19.744 17.7254 19.744C17.752 19.7707 17.7627 19.8213 17.7574 19.896C17.752 19.9707 17.744 20.016 17.7334 20.032C17.6 20.016 17.4694 20.0027 17.3414 19.992C17.2134 19.976 17.064 19.968 16.8934 19.968C16.712 19.968 16.5574 19.976 16.4294 19.992C16.3067 20.0027 16.176 20.016 16.0374 20.032C16.0214 20.016 16.0107 19.976 16.0054 19.912C16 19.848 16.0054 19.7947 16.0214 19.752C16.0534 19.752 16.1067 19.7413 16.1814 19.72C16.2614 19.6933 16.3387 19.6613 16.4134 19.624C16.4934 19.5867 16.5467 19.5467 16.5734 19.504C16.6427 19.3973 16.6934 19.3067 16.7254 19.232C16.7574 19.152 16.7974 19.0587 16.8454 18.952ZM18.4134 16.28L17.7494 17.816C17.7494 17.816 17.7494 17.8213 17.7494 17.832C17.7547 17.8373 17.76 17.84 17.7654 17.84C17.8454 17.8453 17.952 17.8507 18.0854 17.856C18.2187 17.8613 18.328 17.864 18.4134 17.864C18.536 17.864 18.64 17.864 18.7254 17.864C18.816 17.8587 18.92 17.8533 19.0374 17.848C19.048 17.848 19.0534 17.8427 19.0534 17.832C19.0587 17.8213 19.0614 17.816 19.0614 17.816L18.4134 16.28ZM24.2228 16.504C24.3241 16.504 24.4175 16.5147 24.5028 16.536C24.5881 16.5573 24.6575 16.592 24.7108 16.64C24.7268 16.6613 24.7455 16.7093 24.7668 16.784C24.7881 16.8587 24.7988 16.9387 24.7988 17.024C24.7988 17.1093 24.7775 17.2 24.7348 17.296C24.6975 17.392 24.6441 17.4747 24.5748 17.544C24.5055 17.608 24.4255 17.64 24.3348 17.64C24.2655 17.64 24.2041 17.6187 24.1508 17.576C24.0975 17.528 24.0468 17.4853 23.9988 17.448C23.9561 17.4053 23.9135 17.368 23.8708 17.336C23.8335 17.2987 23.7801 17.28 23.7108 17.28C23.6041 17.28 23.5108 17.3227 23.4308 17.408C23.3561 17.488 23.2975 17.5787 23.2548 17.68C23.2121 17.776 23.1908 17.8533 23.1908 17.912V18.864C23.1908 19.008 23.1935 19.1467 23.1988 19.28C23.2041 19.4133 23.2228 19.52 23.2548 19.6C23.2708 19.632 23.3188 19.6587 23.3988 19.68C23.4788 19.7013 23.5615 19.7173 23.6468 19.728C23.7375 19.7333 23.7988 19.7387 23.8308 19.744C23.8521 19.7707 23.8601 19.8187 23.8548 19.888C23.8548 19.9573 23.8468 20.0053 23.8308 20.032C23.6815 20.016 23.4921 20.0027 23.2628 19.992C23.0388 19.9813 22.8441 19.976 22.6788 19.976C22.5135 19.976 22.3321 19.9813 22.1348 19.992C21.9428 20.0027 21.7695 20.016 21.6148 20.032C21.5988 20.0053 21.5881 19.9573 21.5828 19.888C21.5828 19.8187 21.5935 19.7707 21.6148 19.744C21.6521 19.7387 21.7055 19.7333 21.7748 19.728C21.8495 19.7173 21.9215 19.7013 21.9908 19.68C22.0601 19.6587 22.1001 19.632 22.1108 19.6C22.1428 19.52 22.1615 19.4187 22.1668 19.296C22.1721 19.1733 22.1748 19.0293 22.1748 18.864V17.968C22.1748 17.9413 22.1721 17.8853 22.1668 17.8C22.1668 17.7093 22.1615 17.6187 22.1508 17.528C22.1401 17.432 22.1241 17.3653 22.1028 17.328C22.0815 17.2853 22.0335 17.2533 21.9588 17.232C21.8895 17.2107 21.8201 17.1947 21.7508 17.184C21.6815 17.1733 21.6361 17.168 21.6148 17.168C21.6095 17.1627 21.6041 17.1413 21.5988 17.104C21.5935 17.0613 21.5935 17.0213 21.5988 16.984C21.6041 16.9467 21.6121 16.928 21.6228 16.928C21.8201 16.912 22.0148 16.88 22.2068 16.832C22.4041 16.784 22.5855 16.7307 22.7508 16.672C22.9161 16.6133 23.0468 16.56 23.1428 16.512C23.1695 16.5173 23.1988 16.5387 23.2308 16.576C23.2628 16.6133 23.2788 16.6373 23.2788 16.648C23.2735 16.6693 23.2628 16.7227 23.2468 16.808C23.2361 16.8933 23.2255 16.9813 23.2148 17.072C23.2041 17.1627 23.1988 17.2267 23.1988 17.264C23.1988 17.2853 23.2041 17.296 23.2148 17.296C23.2308 17.296 23.2415 17.2933 23.2468 17.288C23.3108 17.176 23.3855 17.0587 23.4708 16.936C23.5615 16.8133 23.6681 16.712 23.7908 16.632C23.9135 16.5467 24.0575 16.504 24.2228 16.504Z" fill="#00C569"/>
</g>
<defs>
<clipPath id="clip0_29_809">
<rect width="40" height="40" fill="white"/>
</clipPath>
</defs>
</svg>
