<svg xmlns="http://www.w3.org/2000/svg" width="40" height="40" viewBox="0 0 40 40">
  <g id="Icon_B_o" data-name="Icon_B&amp;o" transform="translate(-46 -221)">
    <circle id="BG" cx="20" cy="20" r="20" transform="translate(46 221)"/>
    <g id="B_o" data-name="B&amp;o" transform="translate(57 231)">
      <path id="Path_57" data-name="Path 57" d="M7.579,7.777A6.274,6.274,0,0,0,5.743,3.37,6.948,6.948,0,0,0,.668,1.4H0V20.933H2.17A4.454,4.454,0,0,0,5.142,19.7a3.9,3.9,0,0,0,1.1-2.871,4.227,4.227,0,0,0-1.2-3.139,3.607,3.607,0,0,0-.935-.7,7.047,7.047,0,0,0,1.77-1.235,5.6,5.6,0,0,0,1.7-3.973Zm-6.21,4.508V13.62a4.242,4.242,0,0,1,2.771,1,2.978,2.978,0,0,1,.8,2.2A2.755,2.755,0,0,1,2.17,19.6H1.336V2.736A5.572,5.572,0,0,1,4.808,4.271,4.932,4.932,0,0,1,6.244,7.744a4.777,4.777,0,0,1-4.875,4.541Z" transform="translate(0 -0.933)" fill="#fff" fill-rule="evenodd"/>
      <path id="Path_58" data-name="Path 58" d="M32.282,28.5A5.43,5.43,0,0,0,23,32.342a5.3,5.3,0,0,0,1.6,3.84,5.409,5.409,0,0,0,3.84,1.6,5.3,5.3,0,0,0,3.84-1.6,5.4,5.4,0,0,0,0-7.679Zm-3.84,7.98a4.108,4.108,0,1,1,4.107-4.107,4.092,4.092,0,0,1-4.107,4.107Z" transform="translate(-15.321 -17.918)" fill="#fff" fill-rule="evenodd"/>
      <path id="Path_59" data-name="Path 59" d="M37.644,6.978,36.576,5.91l.8-.8-.935-.935-.835.835L33.1,2.571a.68.68,0,0,1-.2-.5.68.68,0,0,1,.2-.5.736.736,0,0,1,.5-.2.788.788,0,0,1,.534.234l1-.868A1.931,1.931,0,0,0,33.638,0,2.024,2.024,0,0,0,31.6,2.037a1.942,1.942,0,0,0,.6,1.436l.033.033-.534.5a2.4,2.4,0,0,0,1.7,4.107,2.347,2.347,0,0,0,1.669-.668l.534-.534c.634.6,1.1,1.068,1.1,1.068l.935-1Zm-3.506-.5a1.036,1.036,0,0,1-.735.3,1.086,1.086,0,0,1-.768-1.836l.5-.5c.434.434,1,.968,1.536,1.5l-.534.534Z" transform="translate(-20.649 0)" fill="#fff" fill-rule="evenodd"/>
    </g>
  </g>
</svg>
