<svg width="40" height="40" viewBox="0 0 40 40" fill="none" xmlns="http://www.w3.org/2000/svg">
<g clip-path="url(#clip0_29_808)">
<path d="M36 0H4C1.79086 0 0 1.79086 0 4V36C0 38.2091 1.79086 40 4 40H36C38.2091 40 40 38.2091 40 36V4C40 1.79086 38.2091 0 36 0Z" fill="#00C569" fill-opacity="0.07"/>
<path d="M10 30V13.75C10 12.7554 10.3951 11.8016 11.0983 11.0983C11.8016 10.3951 12.7554 10 13.75 10H26.25C27.2446 10 28.1984 10.3951 28.9017 11.0983C29.6049 11.8016 30 12.7554 30 13.75V21.25C30 22.2446 29.6049 23.1984 28.9017 23.9017C28.1984 24.6049 27.2446 25 26.25 25H15L10 30Z" stroke="black" stroke-width="2" stroke-linecap="round" stroke-linejoin="round"/>
<path d="M17.2402 14.864C17.3042 14.864 17.4162 14.864 17.5762 14.864C17.7416 14.8587 17.9282 14.8533 18.1362 14.848C18.3496 14.8427 18.5656 14.84 18.7842 14.84C19.0029 14.8347 19.2002 14.8293 19.3762 14.824C19.5576 14.8187 19.6936 14.816 19.7842 14.816C19.8109 15.0133 19.8456 15.2107 19.8882 15.408C19.9309 15.6053 19.9709 15.792 20.0082 15.968C19.9976 15.9787 19.9709 15.9893 19.9282 16C19.8856 16.0053 19.8509 16.008 19.8242 16.008C19.7602 16.008 19.7202 15.9867 19.7042 15.944C19.6189 15.7253 19.5149 15.5413 19.3922 15.392C19.2749 15.2373 19.0962 15.16 18.8562 15.16H18.2082C18.1229 15.16 18.0402 15.1653 17.9602 15.176C17.8856 15.1813 17.8376 15.2053 17.8162 15.248C17.8002 15.2907 17.7896 15.344 17.7842 15.408C17.7842 15.472 17.7842 15.5467 17.7842 15.632C17.7842 15.648 17.7842 15.664 17.7842 15.68C17.7842 15.696 17.7842 15.712 17.7842 15.728V17.128C17.7842 17.1493 17.8189 17.168 17.8882 17.184C17.9576 17.2 18.0349 17.208 18.1202 17.208H18.5282C18.6829 17.208 18.8002 17.1947 18.8802 17.168C18.9656 17.1413 19.0322 17.088 19.0802 17.008C19.1282 16.928 19.1736 16.8133 19.2162 16.664C19.2269 16.6213 19.2589 16.6 19.3122 16.6C19.3816 16.6 19.4296 16.6133 19.4562 16.64V18.144C19.4509 18.1493 19.4322 18.1547 19.4002 18.16C19.3736 18.1653 19.3469 18.168 19.3202 18.168C19.2509 18.168 19.2136 18.1493 19.2082 18.112C19.1602 17.9253 19.1122 17.8027 19.0642 17.744C19.0162 17.6853 18.9736 17.648 18.9362 17.632C18.8456 17.5947 18.6482 17.576 18.3442 17.576C18.2749 17.576 18.1949 17.5787 18.1042 17.584C18.0189 17.5893 17.9442 17.6 17.8802 17.616C17.8162 17.632 17.7842 17.656 17.7842 17.688V18.896C17.7842 18.896 17.7842 18.9013 17.7842 18.912C17.7842 18.9387 17.7842 18.992 17.7842 19.072C17.7842 19.1467 17.7869 19.2267 17.7922 19.312C17.8029 19.3973 17.8189 19.464 17.8402 19.512C17.8669 19.5653 17.9336 19.6053 18.0402 19.632C18.1469 19.6587 18.2509 19.672 18.3522 19.672H18.8642C19.0136 19.672 19.1496 19.6507 19.2722 19.608C19.4002 19.5653 19.5069 19.5013 19.5922 19.416C19.6776 19.3307 19.7522 19.2293 19.8162 19.112C19.8802 18.9947 19.9469 18.848 20.0162 18.672C20.0269 18.64 20.0616 18.624 20.1202 18.624C20.1629 18.624 20.2109 18.6293 20.2642 18.64C20.3176 18.6507 20.3496 18.6613 20.3602 18.672C20.3122 18.8107 20.2589 18.9627 20.2002 19.128C20.1416 19.2933 20.0882 19.4533 20.0402 19.608C19.9922 19.7627 19.9576 19.8987 19.9362 20.016C19.8829 20.016 19.7602 20.016 19.5682 20.016C19.3762 20.016 19.1442 20.016 18.8722 20.016C18.6002 20.016 18.3149 20.016 18.0162 20.016C17.7229 20.016 17.4402 20.016 17.1682 20.016C16.9016 20.016 16.6722 20.016 16.4802 20.016C16.2936 20.0213 16.1736 20.024 16.1202 20.024C16.1042 19.9973 16.0936 19.9493 16.0882 19.88C16.0882 19.8107 16.0989 19.7627 16.1202 19.736C16.1576 19.7307 16.2136 19.7253 16.2882 19.72C16.3629 19.7093 16.4349 19.696 16.5042 19.68C16.5736 19.6587 16.6136 19.632 16.6242 19.6C16.6562 19.52 16.6749 19.4187 16.6802 19.296C16.6856 19.1733 16.6882 19.0293 16.6882 18.864V15.992C16.6882 15.8213 16.6856 15.6773 16.6802 15.56C16.6749 15.4373 16.6562 15.336 16.6242 15.256C16.6136 15.2187 16.5736 15.192 16.5042 15.176C16.4349 15.16 16.3629 15.1493 16.2882 15.144C16.2136 15.1387 16.1576 15.136 16.1202 15.136C16.0989 15.1093 16.0882 15.0587 16.0882 14.984C16.0936 14.9093 16.1042 14.8613 16.1202 14.84C16.2962 14.8507 16.4856 14.8587 16.6882 14.864C16.8909 14.864 17.0749 14.864 17.2402 14.864ZM23.4875 16.512C23.7862 16.512 24.0102 16.5813 24.1595 16.72C24.3142 16.8533 24.4182 17.0587 24.4715 17.336C24.5249 17.608 24.5515 17.9493 24.5515 18.36V18.864C24.5515 19.0293 24.5542 19.1733 24.5595 19.296C24.5649 19.4187 24.5835 19.52 24.6155 19.6C24.6315 19.632 24.6715 19.6587 24.7355 19.68C24.8049 19.7013 24.8769 19.7173 24.9515 19.728C25.0315 19.7333 25.0875 19.7387 25.1195 19.744C25.1409 19.7707 25.1489 19.8187 25.1435 19.888C25.1435 19.9573 25.1355 20.0053 25.1195 20.032C24.9702 20.016 24.7942 20.0027 24.5915 19.992C24.3942 19.9813 24.2129 19.976 24.0475 19.976C23.8822 19.976 23.7169 19.9813 23.5515 19.992C23.3862 20.0027 23.2262 20.016 23.0715 20.032C23.0555 20.0053 23.0449 19.9573 23.0395 19.888C23.0395 19.8187 23.0502 19.7707 23.0715 19.744C23.1249 19.7387 23.1995 19.728 23.2955 19.712C23.3969 19.6907 23.4582 19.6533 23.4795 19.6C23.5062 19.5307 23.5222 19.4427 23.5275 19.336C23.5329 19.2293 23.5355 19.1067 23.5355 18.968C23.5355 18.952 23.5355 18.936 23.5355 18.92C23.5355 18.8987 23.5355 18.88 23.5355 18.864V18.248C23.5355 18.0613 23.5195 17.8853 23.4875 17.72C23.4609 17.5493 23.4102 17.4133 23.3355 17.312C23.2609 17.2053 23.1542 17.152 23.0155 17.152C22.9142 17.152 22.8102 17.1787 22.7035 17.232C22.5969 17.28 22.5062 17.3387 22.4315 17.408C22.3622 17.472 22.3275 17.5307 22.3275 17.584V18.864C22.3275 19.008 22.3302 19.1467 22.3355 19.28C22.3409 19.4133 22.3595 19.52 22.3915 19.6C22.4075 19.632 22.4422 19.6587 22.4955 19.68C22.5542 19.7013 22.6155 19.7173 22.6795 19.728C22.7489 19.7333 22.7995 19.7387 22.8315 19.744C22.8529 19.7707 22.8609 19.8187 22.8555 19.888C22.8555 19.9573 22.8475 20.0053 22.8315 20.032C22.6822 20.016 22.5169 20.0027 22.3355 19.992C22.1542 19.9813 21.9809 19.976 21.8155 19.976C21.6502 19.976 21.4689 19.9813 21.2715 19.992C21.0795 20.0027 20.9062 20.016 20.7515 20.032C20.7355 20.0053 20.7249 19.9573 20.7195 19.888C20.7195 19.8187 20.7302 19.7707 20.7515 19.744C20.7889 19.7387 20.8422 19.7333 20.9115 19.728C20.9862 19.7173 21.0582 19.7013 21.1275 19.68C21.1969 19.6587 21.2369 19.632 21.2475 19.6C21.2795 19.52 21.2982 19.4187 21.3035 19.296C21.3089 19.1733 21.3115 19.0293 21.3115 18.864V17.968C21.3115 17.9413 21.3089 17.8853 21.3035 17.8C21.3035 17.7093 21.2982 17.6187 21.2875 17.528C21.2769 17.432 21.2609 17.3653 21.2395 17.328C21.2182 17.2853 21.1702 17.2533 21.0955 17.232C21.0262 17.2107 20.9569 17.1947 20.8875 17.184C20.8182 17.1733 20.7729 17.168 20.7515 17.168C20.7462 17.1627 20.7409 17.1413 20.7355 17.104C20.7302 17.0613 20.7302 17.0213 20.7355 16.984C20.7409 16.9467 20.7489 16.928 20.7595 16.928C20.9569 16.912 21.1515 16.88 21.3435 16.832C21.5409 16.784 21.7222 16.7307 21.8875 16.672C22.0529 16.6133 22.1835 16.56 22.2795 16.512C22.3062 16.512 22.3355 16.5307 22.3675 16.568C22.3995 16.6 22.4155 16.6267 22.4155 16.648C22.4102 16.6693 22.3995 16.7173 22.3835 16.792C22.3729 16.8613 22.3622 16.928 22.3515 16.992C22.3409 17.056 22.3355 17.0907 22.3355 17.096C22.3355 17.1227 22.3382 17.1387 22.3435 17.144C22.3542 17.144 22.3729 17.1307 22.3995 17.104C22.4742 17.0187 22.5729 16.9307 22.6955 16.84C22.8235 16.7493 22.9569 16.672 23.0955 16.608C23.2395 16.544 23.3702 16.512 23.4875 16.512Z" fill="#00C569"/>
</g>
<defs>
<clipPath id="clip0_29_808">
<rect width="40" height="40" fill="white"/>
</clipPath>
</defs>
</svg>
