<svg width="40" height="40" viewBox="0 0 40 40" fill="none" xmlns="http://www.w3.org/2000/svg">
<path d="M36 0H4C1.79086 0 0 1.79086 0 4V36C0 38.2091 1.79086 40 4 40H36C38.2091 40 40 38.2091 40 36V4C40 1.79086 38.2091 0 36 0Z" fill="#00C569" fill-opacity="0.07"/>
<path d="M26.6669 11.6667H17.778V14.4444H18.8891V12.7778H26.6669C27.0002 12.7778 27.2224 13 27.2224 13.3333V19.4444C27.2224 19.7778 27.0002 20 26.6669 20H19.4447V23.8889H16.5002L14.4447 25.5V23.8889H12.778C12.4447 23.8889 12.2224 23.6667 12.2224 23.3333V17.2222C12.2224 16.8889 12.4447 16.6667 12.778 16.6667H20.0002V15.5556H12.778C11.8336 15.5556 11.1113 16.2778 11.1113 17.2222V23.3333C11.1113 24.2778 11.8336 25 12.778 25H13.3336V27.8333L16.8336 25H20.5558V21.1111H26.6669C27.6113 21.1111 28.3336 20.3889 28.3336 19.4444V13.3333C28.3336 12.3889 27.6113 11.6667 26.6669 11.6667Z" fill="black"/>
<path d="M13.4453 22.7222H14.7786L15.112 21.8333H16.8342L17.1675 22.7222H18.5009L16.612 17.7778H15.2786L13.4453 22.7222ZM15.9453 19.1667L16.5009 20.8889H15.3898L15.9453 19.1667Z" fill="#00C569"/>
<path d="M21.1113 19.4444C21.7224 19.4444 22.5558 19.2778 23.3336 18.8889C24.1113 19.2778 25.0002 19.4444 25.5558 19.4444V18.3333C25.5558 18.3333 25.0002 18.3333 24.3891 18.1111C25.0558 17.4444 25.5558 16.4444 25.5558 15V14.4444H23.8891V13.3333H22.778V14.4444H21.1113V15.5556H24.3891C24.278 16.5556 23.8336 17.1667 23.3336 17.5556C23.0002 17.2778 22.6669 16.8889 22.4447 16.3889H21.278C21.5002 17.1111 21.8336 17.6667 22.278 18.1111C21.7224 18.3333 21.2224 18.3333 21.1113 18.3333V19.4444Z" fill="black"/>
</svg>
