<svg width="248" height="248" viewBox="0 0 248 248" fill="none" xmlns="http://www.w3.org/2000/svg">
<g filter="url(#filter0_d_83_1022)">
<circle cx="124" cy="120" r="120" fill="#FFFFFC"/>
</g>
<path d="M113.513 170.676L55.3263 112.489C49.5579 106.72 49.5579 97.2814 55.3263 91.513L113.513 33.3263C119.281 27.5579 128.72 27.5579 134.489 33.3263L192.675 91.513C198.444 97.2814 198.444 106.72 192.675 112.489L134.489 170.676C128.721 176.444 119.281 176.444 113.513 170.676Z" fill="url(#paint0_linear_83_1022)"/>
<mask id="mask0_83_1022" style="mask-type:luminance" maskUnits="userSpaceOnUse" x="51" y="29" width="147" height="147">
<path d="M192.679 91.5128L155.998 54.8319L155.01 49.2253C153.492 40.6181 145.524 34.7883 136.954 35.787L134.493 33.3268C128.725 27.5584 119.286 27.5584 113.518 33.3268L105.574 41.2705L85.2491 44.8547C76.3191 46.429 70.3567 54.9446 71.9317 63.8747L73.5864 73.2587L55.3317 91.5135C49.5633 97.2819 49.5633 106.721 55.3317 112.489L85.892 143.05L113.518 170.675C119.286 176.444 128.725 176.444 134.493 170.675L170.14 135.029L192.68 112.488C198.448 106.72 198.448 97.2812 192.679 91.5128Z" fill="white"/>
</mask>
<g mask="url(#mask0_83_1022)">
<path d="M168.202 186.779L106.58 197.645C100.654 198.689 95.004 194.733 93.9591 188.807L70.9706 58.4334C69.9257 52.5083 73.8819 46.8578 79.8077 45.8129L141.43 34.9476C147.355 33.9028 153.006 37.8589 154.05 43.7847L177.039 174.159C178.083 180.084 174.127 185.734 168.202 186.779Z" fill="#07293E"/>
<path d="M122.481 48.8808L102.378 52.4254C101.247 52.6246 100.169 51.8697 99.9694 50.7392C99.7702 49.6086 100.525 48.5301 101.656 48.3309L121.759 44.7863C122.89 44.5871 123.968 45.342 124.168 46.4726C124.367 47.6031 123.612 48.6809 122.481 48.8808Z" fill="white"/>
<path d="M149.578 50.2892L77.6382 62.9707L98.7487 182.727L170.688 170.045L149.578 50.2892Z" fill="white"/>
</g>
<path d="M104.747 91.0525L99.4648 121.016L141.267 128.385L146.549 98.4214L104.747 91.0525Z" fill="#00C569"/>
<path d="M133.45 101.379C132.882 101.278 132.502 100.736 132.602 100.168L133.53 94.9058C134.249 90.8289 131.808 86.7219 127.788 85.7319C123.379 84.6468 119.028 87.5346 118.253 91.933L117.278 97.4649C117.177 98.0331 116.636 98.4131 116.067 98.3128C115.498 98.2125 115.118 97.6707 115.219 97.1017L116.144 91.8547C117.036 86.7958 121.564 83.0279 126.684 83.4423C132.56 83.9175 136.635 89.3293 135.636 94.9988L134.66 100.531C134.561 101.1 134.019 101.479 133.45 101.379Z" fill="#07293E"/>
<path d="M182.224 91.1016C178.578 96.8238 176.14 98.5313 169.517 99.9994C175.239 103.645 176.946 106.083 178.414 112.707C182.06 106.985 184.498 105.277 191.122 103.809C185.4 100.163 183.692 97.7252 182.224 91.1016Z" fill="white"/>
<path d="M67.7724 108.313C68.3882 104.278 69.3159 102.746 72.605 100.327C68.569 99.7114 67.0372 98.7837 64.6187 95.4946C64.0029 99.5306 63.0752 101.062 59.7861 103.481C63.8221 104.097 65.3539 105.024 67.7724 108.313Z" fill="white"/>
<path d="M61.52 169.37C62.7 169.37 63.61 169.5 64.25 169.76C64.89 170 65.44 170.26 65.9 170.54C66.14 170.68 66.33 170.79 66.47 170.87C66.63 170.93 66.78 170.96 66.92 170.96C67.12 170.96 67.26 170.85 67.34 170.63C67.44 170.41 67.52 170.08 67.58 169.64H68.27C68.25 170.02 68.22 170.48 68.18 171.02C68.16 171.54 68.14 172.23 68.12 173.09C68.12 173.95 68.12 175.08 68.12 176.48H67.43C67.35 175.44 67.11 174.43 66.71 173.45C66.31 172.47 65.74 171.67 65 171.05C64.28 170.41 63.39 170.09 62.33 170.09C61.37 170.09 60.58 170.36 59.96 170.9C59.34 171.44 59.03 172.19 59.03 173.15C59.03 173.95 59.23 174.64 59.63 175.22C60.03 175.78 60.61 176.33 61.37 176.87C62.15 177.41 63.09 178.06 64.19 178.82C65.15 179.44 66.01 180.06 66.77 180.68C67.53 181.3 68.14 182 68.6 182.78C69.06 183.56 69.29 184.49 69.29 185.57C69.29 186.89 68.94 187.98 68.24 188.84C67.56 189.7 66.66 190.35 65.54 190.79C64.42 191.21 63.19 191.42 61.85 191.42C60.61 191.42 59.62 191.3 58.88 191.06C58.14 190.82 57.52 190.57 57.02 190.31C56.58 190.03 56.24 189.89 56 189.89C55.8 189.89 55.65 190 55.55 190.22C55.47 190.44 55.4 190.77 55.34 191.21H54.65C54.69 190.73 54.71 190.17 54.71 189.53C54.73 188.89 54.74 188.06 54.74 187.04C54.76 186 54.77 184.69 54.77 183.11H55.46C55.54 184.43 55.76 185.67 56.12 186.83C56.5 187.97 57.07 188.89 57.83 189.59C58.61 190.29 59.64 190.64 60.92 190.64C61.62 190.64 62.24 190.52 62.78 190.28C63.34 190.02 63.79 189.64 64.13 189.14C64.47 188.64 64.64 188.02 64.64 187.28C64.64 186.44 64.44 185.71 64.04 185.09C63.66 184.47 63.13 183.89 62.45 183.35C61.79 182.81 61.02 182.26 60.14 181.7C59.2 181.08 58.32 180.46 57.5 179.84C56.68 179.22 56.02 178.51 55.52 177.71C55.04 176.91 54.8 175.96 54.8 174.86C54.8 173.6 55.11 172.57 55.73 171.77C56.37 170.95 57.2 170.35 58.22 169.97C59.26 169.57 60.36 169.37 61.52 169.37ZM77.1538 167.54V177.86C77.6538 176.82 78.3238 176.1 79.1637 175.7C80.0238 175.28 80.9838 175.07 82.0438 175.07C82.9038 175.07 83.5938 175.18 84.1138 175.4C84.6338 175.6 85.0438 175.88 85.3438 176.24C85.6838 176.62 85.9238 177.11 86.0638 177.71C86.2238 178.31 86.3038 179.12 86.3038 180.14V188.21C86.3038 189.05 86.4438 189.62 86.7238 189.92C87.0238 190.22 87.5238 190.37 88.2238 190.37V191C87.8438 190.98 87.2638 190.96 86.4838 190.94C85.7238 190.9 84.9838 190.88 84.2638 190.88C83.4838 190.88 82.7238 190.9 81.9838 190.94C81.2638 190.96 80.7238 190.98 80.3638 191V190.37C80.9638 190.37 81.3838 190.22 81.6238 189.92C81.8638 189.62 81.9838 189.05 81.9838 188.21V178.88C81.9838 178.38 81.9338 177.95 81.8338 177.59C81.7338 177.21 81.5438 176.92 81.2638 176.72C81.0038 176.5 80.6238 176.39 80.1238 176.39C79.5838 176.39 79.0838 176.54 78.6238 176.84C78.1838 177.12 77.8238 177.52 77.5438 178.04C77.2838 178.56 77.1538 179.16 77.1538 179.84V188.21C77.1538 189.05 77.2738 189.62 77.5138 189.92C77.7538 190.22 78.1738 190.37 78.7738 190.37V191C78.4138 190.98 77.8838 190.96 77.1838 190.94C76.4838 190.9 75.7738 190.88 75.0538 190.88C74.2738 190.88 73.4838 190.9 72.6838 190.94C71.9038 190.96 71.3138 190.98 70.9138 191V190.37C71.6138 190.37 72.1038 190.22 72.3838 189.92C72.6838 189.62 72.8338 189.05 72.8338 188.21V171.14C72.8338 170.24 72.6938 169.58 72.4138 169.16C72.1538 168.72 71.6538 168.5 70.9138 168.5V167.87C71.5538 167.93 72.1738 167.96 72.7738 167.96C73.5938 167.96 74.3738 167.93 75.1138 167.87C75.8538 167.79 76.5338 167.68 77.1538 167.54ZM97.0557 175.07C98.5157 175.07 99.7957 175.34 100.896 175.88C101.996 176.42 102.856 177.29 103.476 178.49C104.096 179.69 104.406 181.28 104.406 183.26C104.406 185.24 104.096 186.83 103.476 188.03C102.856 189.21 101.996 190.07 100.896 190.61C99.7957 191.15 98.5157 191.42 97.0557 191.42C95.6357 191.42 94.3657 191.15 93.2457 190.61C92.1457 190.07 91.2757 189.21 90.6357 188.03C90.0157 186.83 89.7057 185.24 89.7057 183.26C89.7057 181.28 90.0157 179.69 90.6357 178.49C91.2757 177.29 92.1457 176.42 93.2457 175.88C94.3657 175.34 95.6357 175.07 97.0557 175.07ZM97.0557 175.67C96.2557 175.67 95.5857 176.27 95.0457 177.47C94.5057 178.65 94.2357 180.58 94.2357 183.26C94.2357 185.94 94.5057 187.87 95.0457 189.05C95.5857 190.23 96.2557 190.82 97.0557 190.82C97.8757 190.82 98.5457 190.23 99.0657 189.05C99.6057 187.87 99.8757 185.94 99.8757 183.26C99.8757 180.58 99.6057 178.65 99.0657 177.47C98.5457 176.27 97.8757 175.67 97.0557 175.67ZM112.399 175.16V193.46C112.399 194.4 112.639 195.02 113.119 195.32C113.599 195.64 114.259 195.8 115.099 195.8V196.43C114.579 196.41 113.859 196.38 112.939 196.34C112.039 196.32 111.079 196.31 110.059 196.31C109.319 196.31 108.589 196.32 107.869 196.34C107.169 196.38 106.639 196.41 106.279 196.43V195.8C106.939 195.8 107.399 195.66 107.659 195.38C107.939 195.1 108.079 194.56 108.079 193.76V178.76C108.079 177.86 107.939 177.2 107.659 176.78C107.379 176.34 106.879 176.12 106.159 176.12V175.49C106.799 175.55 107.419 175.58 108.019 175.58C108.839 175.58 109.619 175.55 110.359 175.49C111.099 175.41 111.779 175.3 112.399 175.16ZM117.049 175.07C118.069 175.07 118.979 175.35 119.779 175.91C120.579 176.45 121.219 177.28 121.699 178.4C122.179 179.5 122.419 180.88 122.419 182.54C122.419 184 122.249 185.28 121.909 186.38C121.589 187.48 121.119 188.41 120.499 189.17C119.899 189.91 119.169 190.47 118.309 190.85C117.469 191.23 116.519 191.42 115.459 191.42C114.679 191.42 113.969 191.28 113.329 191C112.689 190.74 112.199 190.36 111.859 189.86L112.159 189.47C112.359 189.83 112.639 190.11 112.999 190.31C113.379 190.51 113.809 190.61 114.289 190.61C115.189 190.61 115.899 190.31 116.419 189.71C116.939 189.09 117.309 188.23 117.529 187.13C117.769 186.01 117.889 184.68 117.889 183.14C117.889 181.42 117.779 180.07 117.559 179.09C117.339 178.11 117.039 177.41 116.659 176.99C116.279 176.57 115.819 176.36 115.279 176.36C114.559 176.36 113.899 176.64 113.299 177.2C112.719 177.76 112.389 178.56 112.309 179.6L112.159 178.55C112.519 177.41 113.129 176.55 113.989 175.97C114.869 175.37 115.889 175.07 117.049 175.07Z" fill="#008748"/>
<path d="M140.468 169.76C144.048 169.76 146.708 170.66 148.448 172.46C150.188 174.24 151.058 176.8 151.058 180.14C151.058 182.32 150.628 184.23 149.768 185.87C148.928 187.49 147.698 188.75 146.078 189.65C144.458 190.55 142.498 191 140.198 191C139.898 191 139.498 190.99 138.998 190.97C138.498 190.95 137.978 190.94 137.438 190.94C136.918 190.92 136.438 190.91 135.998 190.91C135.298 190.91 134.608 190.92 133.928 190.94C133.248 190.94 132.698 190.96 132.278 191V190.4C132.958 190.36 133.468 190.28 133.808 190.16C134.168 190.04 134.408 189.8 134.528 189.44C134.648 189.08 134.708 188.54 134.708 187.82V172.94C134.708 172.2 134.648 171.66 134.528 171.32C134.408 170.96 134.168 170.72 133.808 170.6C133.468 170.46 132.958 170.38 132.278 170.36V169.76C132.698 169.78 133.248 169.81 133.928 169.85C134.608 169.87 135.278 169.87 135.938 169.85C136.638 169.83 137.428 169.81 138.308 169.79C139.188 169.77 139.908 169.76 140.468 169.76ZM139.718 170.3C138.798 170.3 138.198 170.47 137.918 170.81C137.638 171.15 137.498 171.84 137.498 172.88V187.88C137.498 188.92 137.638 189.61 137.918 189.95C138.218 190.29 138.828 190.46 139.748 190.46C141.928 190.46 143.618 190.07 144.818 189.29C146.018 188.49 146.858 187.33 147.338 185.81C147.818 184.29 148.058 182.44 148.058 180.26C148.058 178.02 147.788 176.17 147.248 174.71C146.728 173.23 145.858 172.13 144.638 171.41C143.438 170.67 141.798 170.3 139.718 170.3ZM160.857 175.13C162.617 175.13 163.987 175.67 164.967 176.75C165.967 177.81 166.467 179.47 166.467 181.73H155.877L155.847 181.16H163.587C163.627 180.18 163.547 179.28 163.347 178.46C163.147 177.62 162.827 176.95 162.387 176.45C161.967 175.95 161.417 175.7 160.737 175.7C159.817 175.7 158.997 176.16 158.277 177.08C157.577 178 157.157 179.46 157.017 181.46L157.107 181.58C157.067 181.88 157.037 182.21 157.017 182.57C156.997 182.93 156.987 183.29 156.987 183.65C156.987 185.01 157.207 186.18 157.647 187.16C158.087 188.14 158.657 188.89 159.357 189.41C160.077 189.91 160.817 190.16 161.577 190.16C162.177 190.16 162.747 190.07 163.287 189.89C163.827 189.69 164.327 189.37 164.787 188.93C165.247 188.49 165.647 187.9 165.987 187.16L166.587 187.4C166.367 188.06 166.007 188.7 165.507 189.32C165.007 189.94 164.377 190.45 163.617 190.85C162.857 191.23 161.977 191.42 160.977 191.42C159.537 191.42 158.297 191.09 157.257 190.43C156.237 189.77 155.447 188.86 154.887 187.7C154.347 186.52 154.077 185.17 154.077 183.65C154.077 181.89 154.357 180.38 154.917 179.12C155.477 177.84 156.267 176.86 157.287 176.18C158.307 175.48 159.497 175.13 160.857 175.13ZM173.003 191.21C172.183 191.21 171.473 191.06 170.873 190.76C170.273 190.44 169.813 190 169.493 189.44C169.193 188.88 169.043 188.23 169.043 187.49C169.043 186.61 169.243 185.89 169.643 185.33C170.063 184.77 170.593 184.32 171.233 183.98C171.873 183.64 172.543 183.36 173.243 183.14C173.963 182.9 174.643 182.68 175.283 182.48C175.923 182.26 176.443 182.01 176.843 181.73C177.263 181.45 177.473 181.08 177.473 180.62V178.76C177.473 177.92 177.343 177.28 177.083 176.84C176.843 176.4 176.513 176.11 176.093 175.97C175.673 175.81 175.203 175.73 174.683 175.73C174.183 175.73 173.643 175.8 173.063 175.94C172.503 176.08 172.053 176.37 171.713 176.81C172.093 176.89 172.423 177.09 172.703 177.41C172.983 177.73 173.123 178.14 173.123 178.64C173.123 179.14 172.963 179.54 172.643 179.84C172.323 180.12 171.913 180.26 171.413 180.26C170.833 180.26 170.403 180.08 170.123 179.72C169.863 179.34 169.733 178.92 169.733 178.46C169.733 177.94 169.863 177.52 170.123 177.2C170.383 176.88 170.713 176.58 171.113 176.3C171.573 175.98 172.163 175.71 172.883 175.49C173.623 175.25 174.453 175.13 175.373 175.13C176.193 175.13 176.893 175.23 177.473 175.43C178.053 175.61 178.533 175.88 178.913 176.24C179.433 176.72 179.773 177.31 179.933 178.01C180.093 178.69 180.173 179.51 180.173 180.47V188.81C180.173 189.31 180.243 189.67 180.383 189.89C180.543 190.11 180.783 190.22 181.103 190.22C181.323 190.22 181.533 190.17 181.733 190.07C181.933 189.97 182.173 189.81 182.453 189.59L182.783 190.1C182.363 190.42 181.963 190.69 181.583 190.91C181.203 191.11 180.693 191.21 180.053 191.21C179.473 191.21 178.993 191.11 178.613 190.91C178.233 190.71 177.943 190.42 177.743 190.04C177.563 189.64 177.473 189.14 177.473 188.54C176.933 189.44 176.283 190.11 175.523 190.55C174.783 190.99 173.943 191.21 173.003 191.21ZM174.083 190.01C174.743 190.01 175.353 189.82 175.913 189.44C176.493 189.06 177.013 188.49 177.473 187.73V181.85C177.233 182.19 176.883 182.48 176.423 182.72C175.963 182.94 175.463 183.17 174.923 183.41C174.383 183.63 173.863 183.9 173.363 184.22C172.883 184.52 172.483 184.92 172.163 185.42C171.843 185.92 171.683 186.57 171.683 187.37C171.683 188.17 171.893 188.81 172.313 189.29C172.753 189.77 173.343 190.01 174.083 190.01ZM188.454 167.48V188.21C188.454 189.05 188.624 189.62 188.964 189.92C189.324 190.22 189.914 190.37 190.734 190.37V191C190.394 190.98 189.874 190.96 189.174 190.94C188.494 190.9 187.804 190.88 187.104 190.88C186.424 190.88 185.734 190.9 185.034 190.94C184.334 190.96 183.814 190.98 183.474 191V190.37C184.294 190.37 184.874 190.22 185.214 189.92C185.574 189.62 185.754 189.05 185.754 188.21V171.08C185.754 170.18 185.594 169.52 185.274 169.1C184.954 168.66 184.354 168.44 183.474 168.44V167.81C184.114 167.87 184.734 167.9 185.334 167.9C185.914 167.9 186.464 167.87 186.984 167.81C187.524 167.73 188.014 167.62 188.454 167.48Z" fill="black"/>
<defs>
<filter id="filter0_d_83_1022" x="0" y="0" width="248" height="248" filterUnits="userSpaceOnUse" color-interpolation-filters="sRGB">
<feFlood flood-opacity="0" result="BackgroundImageFix"/>
<feColorMatrix in="SourceAlpha" type="matrix" values="0 0 0 0 0 0 0 0 0 0 0 0 0 0 0 0 0 0 127 0" result="hardAlpha"/>
<feOffset dy="4"/>
<feGaussianBlur stdDeviation="2"/>
<feComposite in2="hardAlpha" operator="out"/>
<feColorMatrix type="matrix" values="0 0 0 0 0 0 0 0 0 0 0 0 0 0 0 0 0 0 0.25 0"/>
<feBlend mode="normal" in2="BackgroundImageFix" result="effect1_dropShadow_83_1022"/>
<feBlend mode="normal" in="SourceGraphic" in2="effect1_dropShadow_83_1022" result="shape"/>
<filter/>
<linearGradient id="paint0_linear_83_1022" x1="124.001" y1="29" x2="124.001" y2="175.002" gradientUnits="userSpaceOnUse">
<stop stop-color="#00C569"/>
<stop offset="1" stop-color="#005F33"/>
</linearGradient>
</defs>
</svg>
