<svg width="19" height="20" viewBox="0 0 19 20" fill="none" xmlns="http://www.w3.org/2000/svg">
<mask id="mask0_39_254" style="mask-type:luminance" maskUnits="userSpaceOnUse" x="0" y="0" width="19" height="20">
<path d="M18.793 0H0V20H18.793V0Z" fill="white"/>
</mask>
<g mask="url(#mask0_39_254)">
<path d="M18.7265 16.84L18.2065 14.4C18.0695 13.7583 17.8039 13.1511 17.4258 12.6148C17.0477 12.0786 16.5648 11.6245 16.0065 11.28L12.9265 9.36001C13.4151 8.72437 13.7071 7.9596 13.7665 7.16001L14.0065 4.88001C14.0836 4.26509 14.0282 3.64077 13.8439 3.04906C13.6596 2.45736 13.3507 1.91198 12.938 1.44964C12.5253 0.987293 12.0183 0.618698 11.4513 0.368651C10.8842 0.118604 10.2702 -0.00709518 9.65045 1.06572e-05H9.17045C8.54516 -0.00154875 7.92654 0.128481 7.35479 0.381649C6.78304 0.634817 6.27096 1.00546 5.85183 1.46948C5.4327 1.93351 5.1159 2.48053 4.92201 3.07501C4.72812 3.66948 4.6615 4.2981 4.72645 4.92001L4.96645 7.20001C5.05831 7.99199 5.3471 8.74834 5.80645 9.40001L2.72645 11.32C2.18226 11.6665 1.71173 12.1168 1.34178 12.6453C0.971828 13.1738 0.70972 13.7701 0.570454 14.4L0.0504541 16.84C-0.026632 17.2209 -0.0185914 17.6141 0.0740007 17.9915C0.166593 18.3689 0.341448 18.7211 0.586056 19.0231C0.830665 19.325 1.13898 19.5692 1.48895 19.738C1.83892 19.9069 2.22188 19.9964 2.61045 20H16.1705C16.5609 20.0026 16.9469 19.9172 17.2998 19.7501C17.6527 19.5831 17.9634 19.3387 18.209 19.0352C18.4545 18.7316 18.6285 18.3766 18.7181 17.9966C18.8077 17.6166 18.8106 17.2213 18.7265 16.84ZM7.32645 2.80001C7.55981 2.5439 7.84482 2.34018 8.16267 2.20228C8.48053 2.06439 8.82401 1.99545 9.17045 2.00001H9.65045C9.99623 1.99601 10.3389 2.06523 10.6561 2.20311C10.9732 2.34099 11.2575 2.54441 11.4905 2.80001C11.7214 3.05072 11.8948 3.34889 11.9984 3.67364C12.1021 3.99838 12.1335 4.34185 12.0905 4.68001L11.8505 6.96001C11.7881 7.5637 11.5041 8.12283 11.0534 8.52932C10.6027 8.93581 10.0174 9.1608 9.41045 9.1608C8.80354 9.1608 8.21818 8.93581 7.76751 8.52932C7.31684 8.12283 7.03285 7.5637 6.97045 6.96001L6.72645 4.68001C6.68343 4.34185 6.71484 3.99838 6.81848 3.67364C6.92212 3.34889 7.09549 3.05072 7.32645 2.80001ZM16.6465 17.76C16.5903 17.8342 16.5178 17.8945 16.4345 17.9361C16.3513 17.9778 16.2595 17.9996 16.1665 18H2.61045C2.5184 17.9944 2.42842 17.9703 2.34593 17.9291C2.26345 17.8878 2.19015 17.8303 2.13045 17.76C2.07368 17.6874 2.03351 17.6032 2.01277 17.5133C1.99204 17.4235 1.99125 17.3302 2.01045 17.24L2.52645 14.8C2.60834 14.429 2.76427 14.0784 2.9849 13.7691C3.20553 13.4598 3.48632 13.1982 3.81045 13L7.45045 10.72C8.05011 11.0067 8.70581 11.1569 9.37045 11.16C10.0356 11.1614 10.6923 11.0109 11.2905 10.72L14.9265 13C15.5717 13.4099 16.0311 14.0559 16.2065 14.8L16.7265 17.24C16.7732 17.3228 16.7912 17.4189 16.7774 17.513C16.7636 17.6071 16.719 17.694 16.6505 17.76H16.6465Z" fill="white"/>
<path d="M13.211 16.4H11.211C11.0793 16.4014 10.9487 16.3764 10.8267 16.3266C10.7048 16.2768 10.594 16.2032 10.5009 16.1101C10.4078 16.017 10.3342 15.9062 10.2844 15.7843C10.2346 15.6623 10.2097 15.5317 10.211 15.4C10.2097 15.2683 10.2346 15.1377 10.2844 15.0158C10.3342 14.8938 10.4078 14.7831 10.5009 14.6899C10.594 14.5968 10.7048 14.5232 10.8267 14.4734C10.9487 14.4236 11.0793 14.3987 11.211 14.4H13.211C13.3427 14.3987 13.4733 14.4236 13.5952 14.4734C13.7172 14.5232 13.8279 14.5968 13.9211 14.6899C14.0142 14.7831 14.0878 14.8938 14.1376 15.0158C14.1874 15.1377 14.2123 15.2683 14.211 15.4C14.2123 15.5317 14.1874 15.6623 14.1376 15.7843C14.0878 15.9062 14.0142 16.017 13.9211 16.1101C13.8279 16.2032 13.7172 16.2768 13.5952 16.3266C13.4733 16.3764 13.3427 16.4014 13.211 16.4Z" fill="#00C569"/>
</g>
</svg>
