<svg width="20" height="20" viewBox="0 0 20 20" fill="none" xmlns="http://www.w3.org/2000/svg">
<mask id="mask0_47_412" style="mask-type:luminance" maskUnits="userSpaceOnUse" x="0" y="0" width="20" height="20">
<path d="M19.871 0H0V20H19.871V0Z" fill="white"/>
</mask>
<g mask="url(#mask0_47_412)">
<path d="M17.3105 3.60001H10.6705C10.5251 3.59984 10.3814 3.63107 10.2491 3.69156C10.1169 3.75206 9.99929 3.8404 9.90434 3.95054C9.80939 4.06068 9.73935 4.19002 9.69899 4.32973C9.65864 4.46943 9.64893 4.6162 9.67052 4.76001C9.70886 4.99663 9.83092 5.21162 10.0145 5.3658C10.198 5.51998 10.4308 5.60309 10.6705 5.60001H17.2705C17.354 5.59914 17.4367 5.6166 17.5127 5.65116C17.5888 5.68571 17.6563 5.73652 17.7105 5.80001C17.7675 5.86458 17.8081 5.94187 17.829 6.02539C17.8499 6.10892 17.8504 6.19624 17.8305 6.28001L16.3105 13.56C16.291 13.6942 16.2234 13.8167 16.1205 13.905C16.0175 13.9932 15.8861 14.0412 15.7505 14.04H9.31052C9.17493 14.0412 9.04351 13.9932 8.94055 13.905C8.8376 13.8167 8.7701 13.6942 8.75052 13.56L6.55052 0.800008C6.51431 0.573116 6.39709 0.367038 6.22058 0.219946C6.04407 0.0728541 5.82023 -0.00528303 5.59052 7.99072e-06H0.990524C0.839169 8.42535e-05 0.689839 0.0347931 0.553966 0.101477C0.418093 0.168161 0.299281 0.265052 0.206626 0.384732C0.11397 0.504412 0.0499293 0.643706 0.0194056 0.791951C-0.0111181 0.940196 -0.00731505 1.09346 0.0305236 1.24001C0.0833989 1.4629 0.212008 1.66052 0.39439 1.79913C0.576771 1.93774 0.801614 2.00874 1.03052 2.00001H4.75052L6.79052 13.88C6.88972 14.4754 7.19793 15.0159 7.65981 15.4044C8.12168 15.793 8.70696 16.0042 9.31052 16H15.7905C16.3941 16.0042 16.9794 15.793 17.4412 15.4044C17.9031 15.0159 18.2113 14.4754 18.3105 13.88L19.8305 6.60001C19.8924 6.23261 19.8737 5.85616 19.7757 5.49668C19.6778 5.13721 19.503 4.8033 19.2634 4.51802C19.0237 4.23274 18.725 4.0029 18.3878 3.8444C18.0507 3.6859 17.6831 3.60251 17.3105 3.60001Z" fill="white"/>
<path d="M14.5506 9.20001C14.8158 9.20001 15.0702 9.09466 15.2577 8.90712C15.4452 8.71958 15.5506 8.46523 15.5506 8.20001C15.5506 7.9348 15.4452 7.68044 15.2577 7.4929C15.0702 7.30537 14.8158 7.20001 14.5506 7.20001H11.3506C11.0854 7.20001 10.831 7.30537 10.6435 7.4929C10.4559 7.68044 10.3506 7.9348 10.3506 8.20001C10.3506 8.46523 10.4559 8.71958 10.6435 8.90712C10.831 9.09466 11.0854 9.20001 11.3506 9.20001H14.5506Z" fill="white"/>
<path d="M9.75059 20C10.5238 20 11.1506 19.3732 11.1506 18.6C11.1506 17.8268 10.5238 17.2 9.75059 17.2C8.97739 17.2 8.35059 17.8268 8.35059 18.6C8.35059 19.3732 8.97739 20 9.75059 20Z" fill="#00C569"/>
<path d="M15.3502 20C16.1234 20 16.7502 19.3732 16.7502 18.6C16.7502 17.8268 16.1234 17.2 15.3502 17.2C14.577 17.2 13.9502 17.8268 13.9502 18.6C13.9502 19.3732 14.577 20 15.3502 20Z" fill="#00C569"/>
<path d="M14.751 11.4C14.7523 11.2683 14.7274 11.1377 14.6776 11.0158C14.6278 10.8938 14.5542 10.7831 14.4611 10.6899C14.3679 10.5968 14.2572 10.5232 14.1352 10.4734C14.0133 10.4236 13.8827 10.3987 13.751 10.4H11.751C11.4858 10.4 11.2314 10.5054 11.0439 10.6929C10.8563 10.8804 10.751 11.1348 10.751 11.4C10.751 11.6652 10.8563 11.9196 11.0439 12.1071C11.2314 12.2947 11.4858 12.4 11.751 12.4H13.751C13.8827 12.4014 14.0133 12.3764 14.1352 12.3266C14.2572 12.2768 14.3679 12.2032 14.4611 12.1101C14.5542 12.017 14.6278 11.9062 14.6776 11.7843C14.7274 11.6623 14.7523 11.5317 14.751 11.4Z" fill="#00C569"/>
</g>
</svg>
