<svg width="40" height="40" viewBox="0 0 40 40" fill="none" xmlns="http://www.w3.org/2000/svg">
<g clip-path="url(#clip0_35_2)">
<path d="M36 0H4C1.79086 0 0 1.79086 0 4V36C0 38.2091 1.79086 40 4 40H36C38.2091 40 40 38.2091 40 36V4C40 1.79086 38.2091 0 36 0Z" fill="#00C569" fill-opacity="0.07"/>
<path d="M21.9995 10C15.8492 10 10.8691 14.4777 10.8691 20C10.8691 25.5223 15.8492 30 21.9995 30C25.0174 30 27.7514 28.9196 29.7583 27.1696C30.0073 26.9509 30.0721 26.6116 29.9127 26.3348C29.7533 26.058 29.4097 25.9018 29.0661 25.9554C28.5781 26.0313 28.0801 26.0714 27.5671 26.0714C22.7415 26.0714 18.8272 22.5536 18.8272 18.2143C18.8272 15.2768 20.62 12.7188 23.2743 11.3705C23.5781 11.2143 23.7325 10.9018 23.6578 10.5982C23.5831 10.2946 23.2943 10.067 22.9457 10.0402C22.6319 10.0179 22.3182 10.0045 21.9995 10.0045V10Z" fill="white"/>
<path d="M24.7385 12.6087L25.4901 14.4113H27.9224L25.9546 15.5253L26.7063 17.3279L24.7385 16.2138L22.7706 17.3279L23.5223 15.5253L21.5545 14.4113H23.9868L24.7385 12.6087Z" fill="#00C569"/>
<path d="M25.2168 17.8261L25.6463 19.0278H27.0362L25.9117 19.7705L26.3412 20.9722L25.2168 20.2295L24.0923 20.9722L24.5218 19.7705L23.3973 19.0278H24.7872L25.2168 17.8261Z" fill="#00C569"/>
</g>
<defs>
<clipPath id="clip0_35_2">
<rect width="40" height="40" fill="white"/>
</clipPath>
</defs>
</svg>
