<svg width="40" height="40" viewBox="0 0 40 40" fill="none" xmlns="http://www.w3.org/2000/svg">
<mask id="mask0_39_242" style="mask-type:luminance" maskUnits="userSpaceOnUse" x="0" y="0" width="40" height="40">
<path d="M40 0H0V40H40V0Z" fill="white"/>
</mask>
<g mask="url(#mask0_39_242)">
<path d="M36 0H4C1.79086 0 0 1.79086 0 4V36C0 38.2091 1.79086 40 4 40H36C38.2091 40 40 38.2091 40 36V4C40 1.79086 38.2091 0 36 0Z" fill="#00C569" fill-opacity="0.07"/>
<path d="M27.0808 12.858L23.7338 10.246C23.6171 10.1523 23.4827 10.0831 23.3387 10.0423C23.1947 10.0016 23.0439 9.99021 22.8954 10.0089C22.7469 10.0275 22.6037 10.0758 22.4742 10.1509C22.3448 10.226 22.2317 10.3264 22.1418 10.446L14.4278 20.246C14.321 20.3744 14.2518 20.5298 14.2278 20.695L13.0818 25.551C13.0252 25.7604 13.0339 25.9821 13.1068 26.1864C13.1798 26.3907 13.3134 26.5678 13.4898 26.694C13.6631 26.8245 13.8689 26.9049 14.0847 26.9264C14.3006 26.9479 14.5182 26.9097 14.7138 26.816L19.1628 24.572C19.3158 24.4861 19.4536 24.3756 19.5708 24.245L27.2848 14.49C27.465 14.2431 27.5443 13.9368 27.5064 13.6335C27.4684 13.3303 27.3162 13.0529 27.0808 12.858ZM18.1018 22.858L15.5338 24.164L16.1868 21.348L20.7138 15.592L22.6338 17.102L18.1018 22.858ZM23.8568 15.511L21.9338 14.002L23.2038 12.409L25.1218 13.919L23.8568 15.511Z" fill="white"/>
<path d="M26.2651 30H14.0201C13.8857 30.0013 13.7523 29.9758 13.6279 29.925C13.5035 29.8741 13.3905 29.799 13.2955 29.7039C13.2005 29.6088 13.1254 29.4957 13.0747 29.3712C13.024 29.2468 12.9986 29.1134 13.0001 28.979C12.9987 28.8447 13.0242 28.7114 13.075 28.5871C13.1258 28.4627 13.2008 28.3498 13.2958 28.2548C13.3908 28.1598 13.5038 28.0847 13.6281 28.0339C13.7525 27.9831 13.8857 27.9577 14.0201 27.959H26.2651C26.3994 27.9577 26.5326 27.9831 26.657 28.0339C26.7813 28.0847 26.8943 28.1598 26.9893 28.2548C27.0843 28.3498 27.1594 28.4627 27.2101 28.5871C27.2609 28.7114 27.2864 28.8447 27.2851 28.979C27.2865 29.1134 27.2612 29.2468 27.2104 29.3712C27.1597 29.4957 27.0846 29.6088 26.9896 29.7039C26.8947 29.799 26.7816 29.8741 26.6572 29.925C26.5328 29.9758 26.3995 30.0013 26.2651 30Z" fill="#00C569"/>
</g>
</svg>
