<svg width="17" height="20" viewBox="0 0 17 20" fill="none" xmlns="http://www.w3.org/2000/svg">
<mask id="mask0_39_263" style="mask-type:luminance" maskUnits="userSpaceOnUse" x="0" y="0" width="17" height="20">
<path d="M16.704 0H0V20H16.704V0Z" fill="white"/>
</mask>
<g mask="url(#mask0_39_263)">
<path d="M4.91804 0.00699724C3.62655 0.0855616 2.40989 0.639527 1.50267 1.56207C0.595463 2.4846 0.0619553 3.71038 0.00503607 5.003C-0.024081 5.73192 0.103703 6.45859 0.379742 7.13385C0.655781 7.80911 1.07364 8.41721 1.60504 8.917C1.73186 9.03247 1.88625 9.11338 2.05337 9.15195C2.22049 9.19053 2.39473 9.18547 2.55933 9.13726C2.72393 9.08906 2.87337 8.99932 2.99328 8.87669C3.11319 8.75406 3.19954 8.60264 3.24404 8.437C3.28832 8.26989 3.28954 8.09429 3.24757 7.92658C3.2056 7.75888 3.12181 7.60455 3.00404 7.478C2.68196 7.18577 2.42616 6.82798 2.25385 6.42868C2.08154 6.02937 1.9967 5.59781 2.00504 5.163C2.03179 4.36062 2.35197 3.59594 2.9049 3.01389C3.45784 2.43184 4.20509 2.07286 5.00504 2.005C5.69594 1.96335 6.38166 2.14741 6.95885 2.52944C7.53603 2.91146 7.9734 3.47075 8.20504 4.123C8.26502 4.27936 8.36161 4.41908 8.48671 4.53043C8.61181 4.64178 8.76177 4.72153 8.92404 4.763H9.00404C9.17278 4.78442 9.34419 4.76245 9.50208 4.69916C9.65996 4.63587 9.79909 4.53336 9.90631 4.40131C10.0135 4.26926 10.0853 4.11205 10.1148 3.94454C10.1443 3.77702 10.1307 3.60474 10.075 3.444C9.7046 2.38925 9.0012 1.48358 8.07097 0.863599C7.14073 0.243622 6.03411 -0.0570306 4.91804 0.00699724Z" fill="#00C569"/>
<path d="M16.1855 10.399L5.71747 4.28399C5.54692 4.18215 5.35058 4.13175 5.15207 4.13884C4.95355 4.14594 4.76131 4.21023 4.59847 4.32399C4.43356 4.42758 4.30349 4.57823 4.22506 4.75649C4.14663 4.93474 4.12343 5.13242 4.15847 5.32399L5.79747 17.355C5.81778 17.5306 5.88336 17.698 5.98779 17.8407C6.09222 17.9834 6.23193 18.0965 6.39322 18.169C6.55451 18.2415 6.73186 18.2708 6.9079 18.2542C7.08394 18.2375 7.25264 18.1754 7.39747 18.074C7.47341 18.0334 7.54121 17.9792 7.59747 17.914L10.4755 14.876L13.5935 19.552C13.7439 19.7698 13.9739 19.9197 14.2339 19.9695C14.4939 20.0193 14.763 19.965 14.9833 19.8182C15.2035 19.6714 15.3573 19.4439 15.4114 19.1848C15.4655 18.9257 15.4156 18.6557 15.2725 18.433L12.1545 13.797L16.0315 12.278C16.1032 12.2471 16.1705 12.2067 16.2315 12.158C16.3802 12.0623 16.5018 11.93 16.5845 11.7737C16.6672 11.6173 16.7083 11.4423 16.7036 11.2655C16.699 11.0887 16.6489 10.9161 16.5581 10.7643C16.4674 10.6126 16.339 10.4867 16.1855 10.399ZM13.1075 11.278L10.7075 12.197C10.4995 12.2879 10.2989 12.3949 10.1075 12.517C9.91659 12.6416 9.74191 12.7894 9.58747 12.957L7.78747 14.836C7.75871 14.8615 7.72372 14.879 7.68604 14.8868C7.64835 14.8945 7.6093 14.8922 7.5728 14.88C7.53631 14.8678 7.50366 14.8463 7.47815 14.8175C7.45264 14.7887 7.43516 14.7537 7.42747 14.716L6.42747 7.40199C6.38747 7.24199 6.58747 7.12199 6.74747 7.20199L13.1025 10.919C13.2725 10.999 13.2725 11.239 13.1125 11.279L13.1075 11.278Z" fill="white"/>
</g>
</svg>
