<svg width="40" height="40" viewBox="0 0 40 40" fill="none" xmlns="http://www.w3.org/2000/svg">
<g clip-path="url(#clip0_36_23)">
<path d="M36 0H4C1.79086 0 0 1.79086 0 4V36C0 38.2091 1.79086 40 4 40H36C38.2091 40 40 38.2091 40 36V4C40 1.79086 38.2091 0 36 0Z" fill="#00C569" fill-opacity="0.07"/>
<path d="M29 19.199H28.02C27.467 19.199 27.02 19.558 27.02 20C27.02 20.441 27.467 20.799 28.02 20.799H29C29.552 20.799 30 20.442 30 20C30 19.559 29.551 19.199 29 19.199ZM20 14.5C19.2771 14.4978 18.5609 14.6385 17.8926 14.9141C17.2243 15.1897 16.6171 15.5947 16.1059 16.1059C15.5947 16.6171 15.1897 17.2243 14.9141 17.8926C14.6385 18.5609 14.4978 19.2771 14.5 20C14.5 23.051 16.949 25.5 20 25.5C23.05 25.5 25.5 23.051 25.5 20C25.5 16.949 23.049 14.5 20 14.5ZM20 24C17.789 24 16 22.209 16 20C16 17.789 17.789 16 20 16C21.0609 16 22.0783 16.4214 22.8284 17.1716C23.5786 17.9217 24 18.9391 24 20C24 21.0609 23.5786 22.0783 22.8284 22.8284C22.0783 23.5786 21.0609 24 20 24ZM13 20C13 19.559 12.551 19.199 12 19.199H11C10.447 19.199 10 19.558 10 20C10 20.441 10.447 20.799 11 20.799H12C12.551 20.799 13 20.441 13 20ZM20 13C20.441 13 20.799 12.553 20.799 12V11C20.799 10.447 20.441 10 20 10C19.559 10 19.199 10.447 19.199 11V12C19.199 12.553 19.558 13 20 13ZM20 27C19.558 27 19.199 27.447 19.199 28V29C19.199 29.553 19.558 30 20 30C20.441 30 20.799 29.553 20.799 29V28C20.799 27.447 20.441 27 20 27ZM27.365 13.766C27.756 13.375 27.819 12.805 27.507 12.493C27.195 12.181 26.624 12.245 26.235 12.636L25.535 13.335C25.144 13.726 25.081 14.296 25.393 14.608C25.705 14.92 26.276 14.856 26.666 14.465L27.365 13.766ZM13.334 25.533L12.634 26.234C12.243 26.625 12.18 27.193 12.492 27.505C12.804 27.817 13.375 27.755 13.764 27.364L14.464 26.665C14.855 26.274 14.918 25.704 14.606 25.391C14.294 25.078 13.723 25.144 13.334 25.533ZM13.765 12.635C13.375 12.244 12.804 12.18 12.492 12.492C12.18 12.804 12.244 13.375 12.633 13.766L13.333 14.465C13.724 14.856 14.293 14.92 14.605 14.608C14.917 14.296 14.854 13.725 14.464 13.335L13.765 12.635ZM25.534 26.666L26.234 27.365C26.625 27.756 27.194 27.818 27.506 27.508C27.818 27.196 27.755 26.625 27.364 26.235L26.665 25.536C26.274 25.145 25.704 25.081 25.391 25.393C25.078 25.705 25.143 26.275 25.534 26.666Z" fill="white"/>
<circle cx="19.9997" cy="20" r="4.16667" fill="#00C569"/>
</g>
<defs>
<clipPath id="clip0_36_23">
<rect width="40" height="40" fill="white"/>
</clipPath>
</defs>
</svg>
