<svg width="40" height="40" viewBox="0 0 40 40" fill="none" xmlns="http://www.w3.org/2000/svg">
<mask id="mask0_39_249" style="mask-type:luminance" maskUnits="userSpaceOnUse" x="0" y="0" width="40" height="40">
<path d="M40 0H0V40H40V0Z" fill="white"/>
</mask>
<g mask="url(#mask0_39_249)">
<path d="M36 0H4C1.79086 0 0 1.79086 0 4V36C0 38.2091 1.79086 40 4 40H36C38.2091 40 40 38.2091 40 36V4C40 1.79086 38.2091 0 36 0Z" fill="#00C569" fill-opacity="0.07"/>
<path d="M27.2868 10H19.1018C18.7444 9.99693 18.39 10.0651 18.0592 10.2004C17.7284 10.3358 17.4279 10.5356 17.1752 10.7884C16.9225 11.0411 16.7226 11.3416 16.5872 11.6724C16.4519 12.0032 16.3838 12.3576 16.3868 12.715V15.828C16.3868 16.0932 16.4922 16.3476 16.6797 16.5351C16.8672 16.7226 17.1216 16.828 17.3868 16.828C17.652 16.828 17.9064 16.7226 18.0939 16.5351C18.2815 16.3476 18.3868 16.0932 18.3868 15.828V12.715C18.3871 12.5255 18.4625 12.3437 18.5965 12.2097C18.7306 12.0757 18.9123 12.0003 19.1018 12H27.2868C27.3813 11.9996 27.475 12.0179 27.5624 12.0539C27.6498 12.0899 27.7293 12.1429 27.7961 12.2097C27.863 12.2765 27.9159 12.356 27.9519 12.4434C27.9879 12.5308 28.0062 12.6245 28.0058 12.719V27.285C28.0057 27.3792 27.987 27.4724 27.9507 27.5594C27.9145 27.6463 27.8615 27.7253 27.7947 27.7917C27.7279 27.8581 27.6487 27.9107 27.5615 27.9465C27.4744 27.9822 27.381 28.0004 27.2868 28H19.1018C18.9123 27.9997 18.7306 27.9243 18.5965 27.7903C18.4625 27.6563 18.3871 27.4745 18.3868 27.285V23.772C18.3868 23.5068 18.2815 23.2524 18.0939 23.0649C17.9064 22.8774 17.652 22.772 17.3868 22.772C17.1216 22.772 16.8672 22.8774 16.6797 23.0649C16.4922 23.2524 16.3868 23.5068 16.3868 23.772V27.285C16.3873 28.0049 16.6736 28.6952 17.1826 29.2042C17.6917 29.7133 18.3819 29.9995 19.1018 30H27.2868C28.0067 29.9995 28.697 29.7133 29.206 29.2042C29.7151 28.6952 30.0013 28.0049 30.0018 27.285V12.715C29.9945 11.9972 29.7061 11.3109 29.1986 10.8033C28.691 10.2957 28.0046 10.0073 27.2868 10Z" fill="white"/>
<path d="M25.1701 20.779C25.2101 20.779 25.2101 20.779 25.2501 20.739C25.2718 20.7417 25.2938 20.7395 25.3146 20.7326C25.3354 20.7256 25.3543 20.7142 25.3701 20.699C25.4004 20.6948 25.4285 20.6808 25.4501 20.659C25.4901 20.659 25.4901 20.619 25.5301 20.619C25.6415 20.5468 25.7363 20.4517 25.8081 20.34C25.8081 20.3 25.8481 20.3 25.8481 20.26C25.8522 20.2297 25.8663 20.2015 25.8881 20.18C25.8881 20.14 25.9281 20.1 25.9281 20.06C25.9281 20.02 25.9281 20.02 25.9681 19.98C26.0082 19.8497 26.0082 19.7103 25.9681 19.58C25.9681 19.54 25.9681 19.54 25.9281 19.5C25.9308 19.4783 25.9286 19.4562 25.9216 19.4355C25.9147 19.4147 25.9033 19.3958 25.8881 19.38C25.8839 19.3497 25.8699 19.3215 25.8481 19.3C25.8481 19.26 25.8081 19.26 25.8081 19.22C25.7681 19.18 25.7281 19.1 25.6881 19.06L22.0151 15.387C21.8294 15.2014 21.5776 15.0971 21.3151 15.0971C21.0525 15.0971 20.8007 15.2014 20.6151 15.387C20.4294 15.5727 20.3251 15.8245 20.3251 16.087C20.3251 16.3496 20.4294 16.6014 20.6151 16.787L22.5751 18.74H11.0001C10.7323 18.7525 10.4795 18.867 10.2936 19.0601C10.1076 19.2531 10.0026 19.51 10.0001 19.778C9.99846 19.9098 10.0232 20.0405 10.0729 20.1626C10.1226 20.2846 10.1962 20.3955 10.2894 20.4887C10.3826 20.5819 10.4934 20.6555 10.6155 20.7052C10.7375 20.7548 10.8683 20.7796 11.0001 20.778L25.1701 20.779Z" fill="white"/>
<path d="M20.5393 23.613L22.2953 21.857C22.3854 21.7619 22.4939 21.6861 22.6143 21.6343C22.7346 21.5825 22.8643 21.5558 22.9953 21.5558C23.1263 21.5558 23.256 21.5825 23.3763 21.6343C23.4967 21.6861 23.6052 21.7619 23.6953 21.857C23.7904 21.9471 23.8662 22.0556 23.918 22.176C23.9698 22.2963 23.9965 22.426 23.9965 22.557C23.9965 22.688 23.9698 22.8177 23.918 22.938C23.8662 23.0584 23.7904 23.1669 23.6953 23.257L21.9373 25.007C21.8472 25.1021 21.7387 25.1779 21.6183 25.2297C21.498 25.2815 21.3683 25.3082 21.2373 25.3082C21.1063 25.3082 20.9766 25.2815 20.8563 25.2297C20.7359 25.1779 20.6274 25.1021 20.5373 25.007C20.4432 24.9169 20.3684 24.8086 20.3173 24.6887C20.2663 24.5688 20.24 24.4399 20.2402 24.3096C20.2404 24.1793 20.267 24.0504 20.3184 23.9307C20.3698 23.8109 20.445 23.7029 20.5393 23.613Z" fill="#00C569"/>
</g>
</svg>
