<svg width="40" height="40" viewBox="0 0 40 40" fill="none" xmlns="http://www.w3.org/2000/svg">
<mask id="mask0_39_243" style="mask-type:luminance" maskUnits="userSpaceOnUse" x="0" y="0" width="40" height="40">
<path d="M40 0H0V40H40V0Z" fill="white"/>
</mask>
<g mask="url(#mask0_39_243)">
<path d="M36 0H4C1.79086 0 0 1.79086 0 4V36C0 38.2091 1.79086 40 4 40H36C38.2091 40 40 38.2091 40 36V4C40 1.79086 38.2091 0 36 0Z" fill="#00C569" fill-opacity="0.07"/>
<path d="M23.259 23.972C23.374 24.0365 23.5007 24.0774 23.6317 24.0922C23.7627 24.1069 23.8954 24.0953 24.0218 24.0581C24.1483 24.0208 24.266 23.9586 24.368 23.8751C24.4701 23.7916 24.5544 23.6886 24.616 23.572C25.893 21.097 26.971 18.542 26.971 16.985C26.9489 15.1468 26.2031 13.3914 24.8954 12.0994C23.5876 10.8074 21.8233 10.083 19.985 10.0831C18.1467 10.0832 16.3825 10.8079 15.0749 12.1001C13.7674 13.3923 13.0219 15.1478 13 16.986C13 19.98 17.351 26.966 19.267 29.561C19.3671 29.6998 19.4994 29.8123 19.6524 29.8887C19.8055 29.9652 19.9749 30.0034 20.146 30C20.3255 29.9957 20.5015 29.9502 20.6607 29.8672C20.8198 29.7841 20.9578 29.6657 21.064 29.521C21.503 28.921 22.022 28.084 22.621 27.086C22.7564 26.8521 22.7946 26.5744 22.7275 26.3127C22.6604 26.0509 22.4932 25.8259 22.262 25.686C22.0373 25.5705 21.7775 25.5432 21.5338 25.6097C21.29 25.6761 21.08 25.8314 20.945 26.045C20.666 26.484 20.426 26.923 20.145 27.322C17.87 24.012 15 18.862 15 16.986C15 15.6626 15.5257 14.3933 16.4615 13.4575C17.3973 12.5217 18.6666 11.996 19.99 11.996C21.3134 11.996 22.5827 12.5217 23.5185 13.4575C24.4543 14.3933 24.98 15.6626 24.98 16.986C24.98 18.104 24.062 20.339 22.864 22.655C22.7431 22.8828 22.7174 23.1492 22.7923 23.396C22.8673 23.6428 23.0368 23.8499 23.264 23.972H23.259Z" fill="white"/>
<path d="M19.9858 15.593C20.2627 15.593 20.5333 15.6751 20.7636 15.8289C20.9938 15.9828 21.1732 16.2014 21.2792 16.4572C21.3852 16.7131 21.4129 16.9946 21.3589 17.2661C21.3049 17.5377 21.1715 17.7872 20.9757 17.983C20.7799 18.1787 20.5305 18.3121 20.2589 18.3661C19.9873 18.4201 19.7058 18.3924 19.45 18.2864C19.1942 18.1805 18.9756 18.001 18.8217 17.7708C18.6679 17.5406 18.5858 17.2699 18.5858 16.993C18.5894 16.6228 18.7381 16.2689 18.9999 16.0071C19.2616 15.7453 19.6156 15.5967 19.9858 15.593ZM19.9858 13.593C19.3147 13.593 18.6587 13.792 18.1007 14.1648C17.5427 14.5377 17.1079 15.0676 16.8511 15.6876C16.5942 16.3075 16.5271 16.9898 16.658 17.6479C16.7889 18.3061 17.112 18.9107 17.5866 19.3852C18.0611 19.8597 18.6657 20.1829 19.3238 20.3138C19.982 20.4447 20.6642 20.3775 21.2842 20.1207C21.9042 19.8639 22.4341 19.429 22.807 18.8711C23.1798 18.3131 23.3788 17.6571 23.3788 16.986C23.3792 16.5403 23.2917 16.0989 23.1213 15.6871C22.9509 15.2753 22.701 14.9011 22.3859 14.5859C22.0707 14.2708 21.6965 14.0209 21.2847 13.8505C20.8729 13.6801 20.4315 13.5926 19.9858 13.593Z" fill="#00C569"/>
</g>
</svg>
