<svg width="40" height="40" viewBox="0 0 40 40" fill="none" xmlns="http://www.w3.org/2000/svg">
<g clip-path="url(#clip0_22_596)">
<path d="M36 0H4C1.79086 0 0 1.79086 0 4V36C0 38.2091 1.79086 40 4 40H36C38.2091 40 40 38.2091 40 36V4C40 1.79086 38.2091 0 36 0Z" fill="#00C569" fill-opacity="0.07"/>
<path d="M15.5 10.53C13.71 11.68 12.5 13.71 12.5 16.03C12.5 18.35 13.71 20.38 15.53 21.53C12.46 21.53 10 19.07 10 16.03C10 14.5713 10.5795 13.1724 11.6109 12.1409C12.6424 11.1095 14.0413 10.53 15.5 10.53ZM27.07 12.03L28.5 13.46L12.93 29.03L11.5 27.6L19.285 19.815L27.07 12.03ZM20.89 14.46L19.41 13.53L17.97 14.53L18.39 12.83L17 11.77L18.75 11.65L19.33 10L20 11.63L21.73 11.66L20.38 12.79L20.89 14.46ZM17.59 18.07L16.43 17.34L15.31 18.12L15.65 16.8L14.56 15.97L15.92 15.88L16.37 14.59L16.88 15.86L18.24 15.89L17.19 16.76L17.59 18.07ZM27 22.03C27 23.4887 26.4205 24.8876 25.3891 25.9191C24.3576 26.9505 22.9587 27.53 21.5 27.53C20.28 27.53 19.15 27.13 18.24 26.46L25.93 18.77C26.6 19.68 27 20.81 27 22.03ZM22.6 28.61L25.37 27.46L25.13 30.81L22.6 28.61ZM26.93 25.91L28.08 23.14L30.28 25.68L26.93 25.91ZM28.08 20.95L26.94 18.17L30.28 18.41L28.08 20.95ZM17.63 27.46L20.4 28.61L17.87 30.8L17.63 27.46Z" fill="white"/>
<path d="M20 14L20.449 15.382H21.9021L20.7265 16.2361L21.1756 17.618L20 16.7639L18.8244 17.618L19.2735 16.2361L18.0979 15.382H19.551L20 14Z" fill="#00C569"/>
</g>
<defs>
<clipPath id="clip0_22_596">
<rect width="40" height="40" fill="white"/>
</clipPath>
</defs>
</svg>
