<svg width="40" height="40" viewBox="0 0 40 40" fill="none" xmlns="http://www.w3.org/2000/svg">
<mask id="mask0_39_246" style="mask-type:luminance" maskUnits="userSpaceOnUse" x="0" y="0" width="40" height="40">
<path d="M40 0H0V40H40V0Z" fill="white"/>
</mask>
<g mask="url(#mask0_39_246)">
<path d="M36 0H4C1.79086 0 0 1.79086 0 4V36C0 38.2091 1.79086 40 4 40H36C38.2091 40 40 38.2091 40 36V4C40 1.79086 38.2091 0 36 0Z" fill="#00C569" fill-opacity="0.07"/>
<path d="M29.5602 14.5201L27.2002 11.0801C26.9472 10.7463 26.6208 10.4753 26.2462 10.288C25.8716 10.1007 25.459 10.0022 25.0402 10.0001H14.9602C14.5418 9.99705 14.1292 10.0978 13.7592 10.2932C13.3893 10.4887 13.0735 10.7728 12.8402 11.1201L10.4802 14.5601C10.1628 14.9724 9.99364 15.4797 10.0002 16.0001V27.4401C10.0049 28.1176 10.2761 28.766 10.7552 29.245C11.2343 29.7241 11.8827 29.9954 12.5602 30.0001H27.4002C27.7367 30.0011 28.07 29.9356 28.3811 29.8073C28.6922 29.6791 28.9748 29.4905 29.2127 29.2526C29.4507 29.0147 29.6392 28.7321 29.7675 28.421C29.8957 28.1099 29.9612 27.7765 29.9602 27.4401V16.0001C29.9895 15.4765 29.8493 14.9575 29.5602 14.5201ZM25.0402 12.0001C25.1337 11.9976 25.2265 12.0182 25.3102 12.06C25.3939 12.1019 25.466 12.1637 25.5202 12.2401L27.0002 14.4001H21.0002V12.0001H25.0402ZM14.4802 12.2401C14.5343 12.1637 14.6065 12.1019 14.6902 12.06C14.7739 12.0182 14.8666 11.9976 14.9602 12.0001H19.0002V14.4001H13.0002L14.4802 12.2401ZM28.0002 27.4401C28.002 27.5141 27.9887 27.5877 27.9612 27.6565C27.9337 27.7252 27.8925 27.7876 27.8401 27.84C27.7878 27.8924 27.7253 27.9336 27.6566 27.9611C27.5878 27.9886 27.5142 28.0018 27.4402 28.0001H12.5602C12.4862 28.0018 12.4125 27.9886 12.3438 27.9611C12.275 27.9336 12.2126 27.8924 12.1602 27.84C12.1079 27.7876 12.0667 27.7252 12.0392 27.6565C12.0117 27.5877 11.9984 27.5141 12.0002 27.4401V16.9201C12.0025 16.7829 12.058 16.652 12.155 16.5549C12.2521 16.4579 12.383 16.4024 12.5202 16.4001H27.5602C27.6974 16.4024 27.8283 16.4579 27.9253 16.5549C28.0223 16.652 28.0779 16.7829 28.0802 16.9201V27.4401H28.0002Z" fill="white"/>
<path d="M23.0001 20.4H17.0001C16.8684 20.4013 16.7377 20.3764 16.6158 20.3266C16.4939 20.2768 16.3831 20.2032 16.29 20.1101C16.1968 20.017 16.1232 19.9062 16.0734 19.7843C16.0237 19.6623 15.9987 19.5317 16.0001 19.4C15.9987 19.2683 16.0237 19.1377 16.0734 19.0157C16.1232 18.8938 16.1968 18.783 16.29 18.6899C16.3831 18.5968 16.4939 18.5232 16.6158 18.4734C16.7377 18.4236 16.8684 18.3987 17.0001 18.4H23.0001C23.1317 18.3987 23.2624 18.4236 23.3843 18.4734C23.5062 18.5232 23.617 18.5968 23.7101 18.6899C23.8033 18.783 23.8769 18.8938 23.9267 19.0157C23.9764 19.1377 24.0014 19.2683 24.0001 19.4C24.0014 19.5317 23.9764 19.6623 23.9267 19.7843C23.8769 19.9062 23.8033 20.017 23.7101 20.1101C23.617 20.2032 23.5062 20.2768 23.3843 20.3266C23.2624 20.3764 23.1317 20.4013 23.0001 20.4Z" fill="#00C569"/>
</g>
</svg>
